<?xml version="1.0" encoding="utf-8" ?>
<svg baseProfile="full" height="242" version="1.1" viewBox="0 0 980 242" width="980" xmlns="http://www.w3.org/2000/svg" xmlns:ev="http://www.w3.org/2001/xml-events" xmlns:xlink="http://www.w3.org/1999/xlink"><title>Custom GitHub contribution heatmap</title><desc>Generated profile component: Custom GitHub contribution heatmap</desc><defs><style type="text/css"><![CDATA[
          .fade { animation: fade .7s ease-out both; }
          .float { animation: float 3.8s ease-in-out infinite; }
          .blink { animation: blink 1.1s step-end infinite; }
          .pulse { animation: pulse 2.8s ease-in-out infinite; }
          @keyframes fade { from { opacity: 0; transform: translateY(5px); } to { opacity: 1; transform: translateY(0); } }
          @keyframes float { 0%,100% { transform:translateY(0); } 50% { transform:translateY(-3px); } }
          @keyframes blink { 50% { opacity:0; } }
          @keyframes pulse { 50% { opacity:.45; } }
        ]]></style></defs><rect fill="#0d1117" height="242" rx="18" width="980" x="0" y="0" /><text fill="#58a6ff" font-family="SFMono-Regular, Consolas, 'Liberation Mono', monospace" font-size="13" font-weight="700" text-anchor="start" x="32" y="42">CONTRIBUTION SIGNAL</text><text fill="#8b949e" font-family="-apple-system, BlinkMacSystemFont, 'Segoe UI', sans-serif" font-size="13" font-weight="400" text-anchor="start" x="32" y="67">Local preview · add GITHUB_TOKEN for live activity</text><rect fill="#161b22" height="124" rx="12" stroke="#30363d" stroke-width="1" width="918" x="31" y="87" /><text fill="#8b949e" font-family="SFMono-Regular, Consolas, 'Liberation Mono', monospace" font-size="10" font-weight="400" text-anchor="start" x="43" y="125">Mon</text><text fill="#8b949e" font-family="SFMono-Regular, Consolas, 'Liberation Mono', monospace" font-size="10" font-weight="400" text-anchor="start" x="43" y="153">Wed</text><text fill="#8b949e" font-family="SFMono-Regular, Consolas, 'Liberation Mono', monospace" font-size="10" font-weight="400" text-anchor="start" x="43" y="181">Fri</text><rect fill="#161b22" height="11" rx="2" width="11" x="100" y="99" /><rect fill="#0e4429" height="11" rx="2" width="11" x="100" y="114" /><rect fill="#39d353" height="11" rx="2" width="11" x="100" y="129" /><rect fill="#39d353" height="11" rx="2" width="11" x="100" y="144" /><rect fill="#39d353" height="11" rx="2" width="11" x="100" y="159" /><rect fill="#39d353" height="11" rx="2" width="11" x="100" y="174" /><rect fill="#006d32" height="11" rx="2" width="11" x="100" y="189" /><rect fill="#006d32" height="11" rx="2" width="11" x="115" y="99" /><rect fill="#006d32" height="11" rx="2" width="11" x="115" y="114" /><rect fill="#0e4429" height="11" rx="2" width="11" x="115" y="129" /><rect fill="#0e4429" height="11" rx="2" width="11" x="115" y="144" /><rect fill="#39d353" height="11" rx="2" width="11" x="115" y="159" /><rect fill="#161b22" height="11" rx="2" width="11" x="115" y="174" /><rect fill="#0e4429" height="11" rx="2" width="11" x="115" y="189" /><rect fill="#0e4429" height="11" rx="2" width="11" x="130" y="99" /><rect fill="#161b22" height="11" rx="2" width="11" x="130" y="114" /><rect fill="#161b22" height="11" rx="2" width="11" x="130" y="129" /><rect fill="#006d32" height="11" rx="2" width="11" x="130" y="144" /><rect fill="#161b22" height="11" rx="2" width="11" x="130" y="159" /><rect fill="#161b22" height="11" rx="2" width="11" x="130" y="174" /><rect fill="#006d32" height="11" rx="2" width="11" x="130" y="189" /><rect fill="#0e4429" height="11" rx="2" width="11" x="145" y="99" /><rect fill="#161b22" height="11" rx="2" width="11" x="145" y="114" /><rect fill="#161b22" height="11" rx="2" width="11" x="145" y="129" /><rect fill="#0e4429" height="11" rx="2" width="11" x="145" y="144" /><rect fill="#006d32" height="11" rx="2" width="11" x="145" y="159" /><rect fill="#161b22" height="11" rx="2" width="11" x="145" y="174" /><rect fill="#006d32" height="11" rx="2" width="11" x="145" y="189" /><rect fill="#006d32" height="11" rx="2" width="11" x="160" y="99" /><rect fill="#0e4429" height="11" rx="2" width="11" x="160" y="114" /><rect fill="#39d353" height="11" rx="2" width="11" x="160" y="129" /><rect fill="#161b22" height="11" rx="2" width="11" x="160" y="144" /><rect fill="#006d32" height="11" rx="2" width="11" x="160" y="159" /><rect fill="#161b22" height="11" rx="2" width="11" x="160" y="174" /><rect fill="#161b22" height="11" rx="2" width="11" x="160" y="189" /><rect fill="#161b22" height="11" rx="2" width="11" x="175" y="99" /><rect fill="#006d32" height="11" rx="2" width="11" x="175" y="114" /><rect fill="#0e4429" height="11" rx="2" width="11" x="175" y="129" /><rect fill="#006d32" height="11" rx="2" width="11" x="175" y="144" /><rect fill="#006d32" height="11" rx="2" width="11" x="175" y="159" /><rect fill="#161b22" height="11" rx="2" width="11" x="175" y="174" /><rect fill="#161b22" height="11" rx="2" width="11" x="175" y="189" /><rect fill="#39d353" height="11" rx="2" width="11" x="190" y="99" /><rect fill="#006d32" height="11" rx="2" width="11" x="190" y="114" /><rect fill="#0e4429" height="11" rx="2" width="11" x="190" y="129" /><rect fill="#39d353" height="11" rx="2" width="11" x="190" y="144" /><rect fill="#161b22" height="11" rx="2" width="11" x="190" y="159" /><rect fill="#0e4429" height="11" rx="2" width="11" x="190" y="174" /><rect fill="#161b22" height="11" rx="2" width="11" x="190" y="189" /><rect fill="#0e4429" height="11" rx="2" width="11" x="205" y="99" /><rect fill="#161b22" height="11" rx="2" width="11" x="205" y="114" /><rect fill="#161b22" height="11" rx="2" width="11" x="205" y="129" /><rect fill="#161b22" height="11" rx="2" width="11" x="205" y="144" /><rect fill="#39d353" height="11" rx="2" width="11" x="205" y="159" /><rect fill="#161b22" height="11" rx="2" width="11" x="205" y="174" /><rect fill="#39d353" height="11" rx="2" width="11" x="205" y="189" /><rect fill="#0e4429" height="11" rx="2" width="11" x="220" y="99" /><rect fill="#0e4429" height="11" rx="2" width="11" x="220" y="114" /><rect fill="#0e4429" height="11" rx="2" width="11" x="220" y="129" /><rect fill="#0e4429" height="11" rx="2" width="11" x="220" y="144" /><rect fill="#006d32" height="11" rx="2" width="11" x="220" y="159" /><rect fill="#161b22" height="11" rx="2" width="11" x="220" y="174" /><rect fill="#39d353" height="11" rx="2" width="11" x="220" y="189" /><rect fill="#0e4429" height="11" rx="2" width="11" x="235" y="99" /><rect fill="#161b22" height="11" rx="2" width="11" x="235" y="114" /><rect fill="#006d32" height="11" rx="2" width="11" x="235" y="129" /><rect fill="#006d32" height="11" rx="2" width="11" x="235" y="144" /><rect fill="#006d32" height="11" rx="2" width="11" x="235" y="159" /><rect fill="#161b22" height="11" rx="2" width="11" x="235" y="174" /><rect fill="#006d32" height="11" rx="2" width="11" x="235" y="189" /><rect fill="#161b22" height="11" rx="2" width="11" x="250" y="99" /><rect fill="#161b22" height="11" rx="2" width="11" x="250" y="114" /><rect fill="#161b22" height="11" rx="2" width="11" x="250" y="129" /><rect fill="#0e4429" height="11" rx="2" width="11" x="250" y="144" /><rect fill="#0e4429" height="11" rx="2" width="11" x="250" y="159" /><rect fill="#0e4429" height="11" rx="2" width="11" x="250" y="174" /><rect fill="#161b22" height="11" rx="2" width="11" x="250" y="189" /><rect fill="#0e4429" height="11" rx="2" width="11" x="265" y="99" /><rect fill="#0e4429" height="11" rx="2" width="11" x="265" y="114" /><rect fill="#39d353" height="11" rx="2" width="11" x="265" y="129" /><rect fill="#161b22" height="11" rx="2" width="11" x="265" y="144" /><rect fill="#0e4429" height="11" rx="2" width="11" x="265" y="159" /><rect fill="#0e4429" height="11" rx="2" width="11" x="265" y="174" /><rect fill="#0e4429" height="11" rx="2" width="11" x="265" y="189" /><rect fill="#161b22" height="11" rx="2" width="11" x="280" y="99" /><rect fill="#006d32" height="11" rx="2" width="11" x="280" y="114" /><rect fill="#0e4429" height="11" rx="2" width="11" x="280" y="129" /><rect fill="#006d32" height="11" rx="2" width="11" x="280" y="144" /><rect fill="#006d32" height="11" rx="2" width="11" x="280" y="159" /><rect fill="#006d32" height="11" rx="2" width="11" x="280" y="174" /><rect fill="#161b22" height="11" rx="2" width="11" x="280" y="189" /><rect fill="#006d32" height="11" rx="2" width="11" x="295" y="99" /><rect fill="#161b22" height="11" rx="2" width="11" x="295" y="114" /><rect fill="#39d353" height="11" rx="2" width="11" x="295" y="129" /><rect fill="#0e4429" height="11" rx="2" width="11" x="295" y="144" /><rect fill="#39d353" height="11" rx="2" width="11" x="295" y="159" /><rect fill="#39d353" height="11" rx="2" width="11" x="295" y="174" /><rect fill="#161b22" height="11" rx="2" width="11" x="295" y="189" /><rect fill="#161b22" height="11" rx="2" width="11" x="310" y="99" /><rect fill="#161b22" height="11" rx="2" width="11" x="310" y="114" /><rect fill="#161b22" height="11" rx="2" width="11" x="310" y="129" /><rect fill="#161b22" height="11" rx="2" width="11" x="310" y="144" /><rect fill="#39d353" height="11" rx="2" width="11" x="310" y="159" /><rect fill="#0e4429" height="11" rx="2" width="11" x="310" y="174" /><rect fill="#161b22" height="11" rx="2" width="11" x="310" y="189" /><rect fill="#161b22" height="11" rx="2" width="11" x="325" y="99" /><rect fill="#161b22" height="11" rx="2" width="11" x="325" y="114" /><rect fill="#0e4429" height="11" rx="2" width="11" x="325" y="129" /><rect fill="#161b22" height="11" rx="2" width="11" x="325" y="144" /><rect fill="#39d353" height="11" rx="2" width="11" x="325" y="159" /><rect fill="#161b22" height="11" rx="2" width="11" x="325" y="174" /><rect fill="#161b22" height="11" rx="2" width="11" x="325" y="189" /><rect fill="#39d353" height="11" rx="2" width="11" x="340" y="99" /><rect fill="#0e4429" height="11" rx="2" width="11" x="340" y="114" /><rect fill="#0e4429" height="11" rx="2" width="11" x="340" y="129" /><rect fill="#161b22" height="11" rx="2" width="11" x="340" y="144" /><rect fill="#0e4429" height="11" rx="2" width="11" x="340" y="159" /><rect fill="#0e4429" height="11" rx="2" width="11" x="340" y="174" /><rect fill="#0e4429" height="11" rx="2" width="11" x="340" y="189" /><rect fill="#0e4429" height="11" rx="2" width="11" x="355" y="99" /><rect fill="#161b22" height="11" rx="2" width="11" x="355" y="114" /><rect fill="#161b22" height="11" rx="2" width="11" x="355" y="129" /><rect fill="#161b22" height="11" rx="2" width="11" x="355" y="144" /><rect fill="#161b22" height="11" rx="2" width="11" x="355" y="159" /><rect fill="#006d32" height="11" rx="2" width="11" x="355" y="174" /><rect fill="#161b22" height="11" rx="2" width="11" x="355" y="189" /><rect fill="#006d32" height="11" rx="2" width="11" x="370" y="99" /><rect fill="#161b22" height="11" rx="2" width="11" x="370" y="114" /><rect fill="#0e4429" height="11" rx="2" width="11" x="370" y="129" /><rect fill="#006d32" height="11" rx="2" width="11" x="370" y="144" /><rect fill="#161b22" height="11" rx="2" width="11" x="370" y="159" /><rect fill="#0e4429" height="11" rx="2" width="11" x="370" y="174" /><rect fill="#39d353" height="11" rx="2" width="11" x="370" y="189" /><rect fill="#39d353" height="11" rx="2" width="11" x="385" y="99" /><rect fill="#0e4429" height="11" rx="2" width="11" x="385" y="114" /><rect fill="#006d32" height="11" rx="2" width="11" x="385" y="129" /><rect fill="#0e4429" height="11" rx="2" width="11" x="385" y="144" /><rect fill="#006d32" height="11" rx="2" width="11" x="385" y="159" /><rect fill="#161b22" height="11" rx="2" width="11" x="385" y="174" /><rect fill="#161b22" height="11" rx="2" width="11" x="385" y="189" /><rect fill="#006d32" height="11" rx="2" width="11" x="400" y="99" /><rect fill="#0e4429" height="11" rx="2" width="11" x="400" y="114" /><rect fill="#006d32" height="11" rx="2" width="11" x="400" y="129" /><rect fill="#0e4429" height="11" rx="2" width="11" x="400" y="144" /><rect fill="#0e4429" height="11" rx="2" width="11" x="400" y="159" /><rect fill="#161b22" height="11" rx="2" width="11" x="400" y="174" /><rect fill="#161b22" height="11" rx="2" width="11" x="400" y="189" /><rect fill="#161b22" height="11" rx="2" width="11" x="415" y="99" /><rect fill="#006d32" height="11" rx="2" width="11" x="415" y="114" /><rect fill="#161b22" height="11" rx="2" width="11" x="415" y="129" /><rect fill="#161b22" height="11" rx="2" width="11" x="415" y="144" /><rect fill="#161b22" height="11" rx="2" width="11" x="415" y="159" /><rect fill="#0e4429" height="11" rx="2" width="11" x="415" y="174" /><rect fill="#0e4429" height="11" rx="2" width="11" x="415" y="189" /><rect fill="#0e4429" height="11" rx="2" width="11" x="430" y="99" /><rect fill="#0e4429" height="11" rx="2" width="11" x="430" y="114" /><rect fill="#161b22" height="11" rx="2" width="11" x="430" y="129" /><rect fill="#006d32" height="11" rx="2" width="11" x="430" y="144" /><rect fill="#0e4429" height="11" rx="2" width="11" x="430" y="159" /><rect fill="#161b22" height="11" rx="2" width="11" x="430" y="174" /><rect fill="#006d32" height="11" rx="2" width="11" x="430" y="189" /><rect fill="#161b22" height="11" rx="2" width="11" x="445" y="99" /><rect fill="#0e4429" height="11" rx="2" width="11" x="445" y="114" /><rect fill="#161b22" height="11" rx="2" width="11" x="445" y="129" /><rect fill="#161b22" height="11" rx="2" width="11" x="445" y="144" /><rect fill="#0e4429" height="11" rx="2" width="11" x="445" y="159" /><rect fill="#39d353" height="11" rx="2" width="11" x="445" y="174" /><rect fill="#0e4429" height="11" rx="2" width="11" x="445" y="189" /><rect fill="#161b22" height="11" rx="2" width="11" x="460" y="99" /><rect fill="#161b22" height="11" rx="2" width="11" x="460" y="114" /><rect fill="#39d353" height="11" rx="2" width="11" x="460" y="129" /><rect fill="#161b22" height="11" rx="2" width="11" x="460" y="144" /><rect fill="#0e4429" height="11" rx="2" width="11" x="460" y="159" /><rect fill="#39d353" height="11" rx="2" width="11" x="460" y="174" /><rect fill="#006d32" height="11" rx="2" width="11" x="460" y="189" /><rect fill="#0e4429" height="11" rx="2" width="11" x="475" y="99" /><rect fill="#0e4429" height="11" rx="2" width="11" x="475" y="114" /><rect fill="#0e4429" height="11" rx="2" width="11" x="475" y="129" /><rect fill="#161b22" height="11" rx="2" width="11" x="475" y="144" /><rect fill="#161b22" height="11" rx="2" width="11" x="475" y="159" /><rect fill="#006d32" height="11" rx="2" width="11" x="475" y="174" /><rect fill="#0e4429" height="11" rx="2" width="11" x="475" y="189" /><rect fill="#161b22" height="11" rx="2" width="11" x="490" y="99" /><rect fill="#006d32" height="11" rx="2" width="11" x="490" y="114" /><rect fill="#39d353" height="11" rx="2" width="11" x="490" y="129" /><rect fill="#0e4429" height="11" rx="2" width="11" x="490" y="144" /><rect fill="#161b22" height="11" rx="2" width="11" x="490" y="159" /><rect fill="#0e4429" height="11" rx="2" width="11" x="490" y="174" /><rect fill="#0e4429" height="11" rx="2" width="11" x="490" y="189" /><rect fill="#161b22" height="11" rx="2" width="11" x="505" y="99" /><rect fill="#39d353" height="11" rx="2" width="11" x="505" y="114" /><rect fill="#39d353" height="11" rx="2" width="11" x="505" y="129" /><rect fill="#161b22" height="11" rx="2" width="11" x="505" y="144" /><rect fill="#0e4429" height="11" rx="2" width="11" x="505" y="159" /><rect fill="#0e4429" height="11" rx="2" width="11" x="505" y="174" /><rect fill="#006d32" height="11" rx="2" width="11" x="505" y="189" /><rect fill="#0e4429" height="11" rx="2" width="11" x="520" y="99" /><rect fill="#0e4429" height="11" rx="2" width="11" x="520" y="114" /><rect fill="#006d32" height="11" rx="2" width="11" x="520" y="129" /><rect fill="#006d32" height="11" rx="2" width="11" x="520" y="144" /><rect fill="#161b22" height="11" rx="2" width="11" x="520" y="159" /><rect fill="#0e4429" height="11" rx="2" width="11" x="520" y="174" /><rect fill="#39d353" height="11" rx="2" width="11" x="520" y="189" /><rect fill="#161b22" height="11" rx="2" width="11" x="535" y="99" /><rect fill="#161b22" height="11" rx="2" width="11" x="535" y="114" /><rect fill="#39d353" height="11" rx="2" width="11" x="535" y="129" /><rect fill="#161b22" height="11" rx="2" width="11" x="535" y="144" /><rect fill="#161b22" height="11" rx="2" width="11" x="535" y="159" /><rect fill="#0e4429" height="11" rx="2" width="11" x="535" y="174" /><rect fill="#161b22" height="11" rx="2" width="11" x="535" y="189" /><rect fill="#161b22" height="11" rx="2" width="11" x="550" y="99" /><rect fill="#0e4429" height="11" rx="2" width="11" x="550" y="114" /><rect fill="#0e4429" height="11" rx="2" width="11" x="550" y="129" /><rect fill="#006d32" height="11" rx="2" width="11" x="550" y="144" /><rect fill="#161b22" height="11" rx="2" width="11" x="550" y="159" /><rect fill="#006d32" height="11" rx="2" width="11" x="550" y="174" /><rect fill="#0e4429" height="11" rx="2" width="11" x="550" y="189" /><rect fill="#161b22" height="11" rx="2" width="11" x="565" y="99" /><rect fill="#161b22" height="11" rx="2" width="11" x="565" y="114" /><rect fill="#161b22" height="11" rx="2" width="11" x="565" y="129" /><rect fill="#0e4429" height="11" rx="2" width="11" x="565" y="144" /><rect fill="#0e4429" height="11" rx="2" width="11" x="565" y="159" /><rect fill="#161b22" height="11" rx="2" width="11" x="565" y="174" /><rect fill="#0e4429" height="11" rx="2" width="11" x="565" y="189" /><rect fill="#006d32" height="11" rx="2" width="11" x="580" y="99" /><rect fill="#0e4429" height="11" rx="2" width="11" x="580" y="114" /><rect fill="#0e4429" height="11" rx="2" width="11" x="580" y="129" /><rect fill="#006d32" height="11" rx="2" width="11" x="580" y="144" /><rect fill="#161b22" height="11" rx="2" width="11" x="580" y="159" /><rect fill="#0e4429" height="11" rx="2" width="11" x="580" y="174" /><rect fill="#161b22" height="11" rx="2" width="11" x="580" y="189" /><rect fill="#161b22" height="11" rx="2" width="11" x="595" y="99" /><rect fill="#006d32" height="11" rx="2" width="11" x="595" y="114" /><rect fill="#0e4429" height="11" rx="2" width="11" x="595" y="129" /><rect fill="#161b22" height="11" rx="2" width="11" x="595" y="144" /><rect fill="#39d353" height="11" rx="2" width="11" x="595" y="159" /><rect fill="#161b22" height="11" rx="2" width="11" x="595" y="174" /><rect fill="#161b22" height="11" rx="2" width="11" x="595" y="189" /><rect fill="#0e4429" height="11" rx="2" width="11" x="610" y="99" /><rect fill="#161b22" height="11" rx="2" width="11" x="610" y="114" /><rect fill="#161b22" height="11" rx="2" width="11" x="610" y="129" /><rect fill="#0e4429" height="11" rx="2" width="11" x="610" y="144" /><rect fill="#0e4429" height="11" rx="2" width="11" x="610" y="159" /><rect fill="#161b22" height="11" rx="2" width="11" x="610" y="174" /><rect fill="#006d32" height="11" rx="2" width="11" x="610" y="189" /><rect fill="#0e4429" height="11" rx="2" width="11" x="625" y="99" /><rect fill="#006d32" height="11" rx="2" width="11" x="625" y="114" /><rect fill="#006d32" height="11" rx="2" width="11" x="625" y="129" /><rect fill="#0e4429" height="11" rx="2" width="11" x="625" y="144" /><rect fill="#0e4429" height="11" rx="2" width="11" x="625" y="159" /><rect fill="#161b22" height="11" rx="2" width="11" x="625" y="174" /><rect fill="#0e4429" height="11" rx="2" width="11" x="625" y="189" /><rect fill="#161b22" height="11" rx="2" width="11" x="640" y="99" /><rect fill="#0e4429" height="11" rx="2" width="11" x="640" y="114" /><rect fill="#39d353" height="11" rx="2" width="11" x="640" y="129" /><rect fill="#161b22" height="11" rx="2" width="11" x="640" y="144" /><rect fill="#39d353" height="11" rx="2" width="11" x="640" y="159" /><rect fill="#161b22" height="11" rx="2" width="11" x="640" y="174" /><rect fill="#161b22" height="11" rx="2" width="11" x="640" y="189" /><rect fill="#161b22" height="11" rx="2" width="11" x="655" y="99" /><rect fill="#161b22" height="11" rx="2" width="11" x="655" y="114" /><rect fill="#006d32" height="11" rx="2" width="11" x="655" y="129" /><rect fill="#161b22" height="11" rx="2" width="11" x="655" y="144" /><rect fill="#006d32" height="11" rx="2" width="11" x="655" y="159" /><rect fill="#0e4429" height="11" rx="2" width="11" x="655" y="174" /><rect fill="#0e4429" height="11" rx="2" width="11" x="655" y="189" /><rect fill="#161b22" height="11" rx="2" width="11" x="670" y="99" /><rect fill="#006d32" height="11" rx="2" width="11" x="670" y="114" /><rect fill="#0e4429" height="11" rx="2" width="11" x="670" y="129" /><rect fill="#0e4429" height="11" rx="2" width="11" x="670" y="144" /><rect fill="#161b22" height="11" rx="2" width="11" x="670" y="159" /><rect fill="#0e4429" height="11" rx="2" width="11" x="670" y="174" /><rect fill="#161b22" height="11" rx="2" width="11" x="670" y="189" /><rect fill="#0e4429" height="11" rx="2" width="11" x="685" y="99" /><rect fill="#0e4429" height="11" rx="2" width="11" x="685" y="114" /><rect fill="#006d32" height="11" rx="2" width="11" x="685" y="129" /><rect fill="#161b22" height="11" rx="2" width="11" x="685" y="144" /><rect fill="#006d32" height="11" rx="2" width="11" x="685" y="159" /><rect fill="#161b22" height="11" rx="2" width="11" x="685" y="174" /><rect fill="#006d32" height="11" rx="2" width="11" x="685" y="189" /><rect fill="#161b22" height="11" rx="2" width="11" x="700" y="99" /><rect fill="#161b22" height="11" rx="2" width="11" x="700" y="114" /><rect fill="#161b22" height="11" rx="2" width="11" x="700" y="129" /><rect fill="#006d32" height="11" rx="2" width="11" x="700" y="144" /><rect fill="#006d32" height="11" rx="2" width="11" x="700" y="159" /><rect fill="#161b22" height="11" rx="2" width="11" x="700" y="174" /><rect fill="#0e4429" height="11" rx="2" width="11" x="700" y="189" /><rect fill="#006d32" height="11" rx="2" width="11" x="715" y="99" /><rect fill="#161b22" height="11" rx="2" width="11" x="715" y="114" /><rect fill="#161b22" height="11" rx="2" width="11" x="715" y="129" /><rect fill="#0e4429" height="11" rx="2" width="11" x="715" y="144" /><rect fill="#0e4429" height="11" rx="2" width="11" x="715" y="159" /><rect fill="#161b22" height="11" rx="2" width="11" x="715" y="174" /><rect fill="#161b22" height="11" rx="2" width="11" x="715" y="189" /><rect fill="#0e4429" height="11" rx="2" width="11" x="730" y="99" /><rect fill="#161b22" height="11" rx="2" width="11" x="730" y="114" /><rect fill="#0e4429" height="11" rx="2" width="11" x="730" y="129" /><rect fill="#161b22" height="11" rx="2" width="11" x="730" y="144" /><rect fill="#006d32" height="11" rx="2" width="11" x="730" y="159" /><rect fill="#161b22" height="11" rx="2" width="11" x="730" y="174" /><rect fill="#161b22" height="11" rx="2" width="11" x="730" y="189" /><rect fill="#161b22" height="11" rx="2" width="11" x="745" y="99" /><rect fill="#161b22" height="11" rx="2" width="11" x="745" y="114" /><rect fill="#161b22" height="11" rx="2" width="11" x="745" y="129" /><rect fill="#006d32" height="11" rx="2" width="11" x="745" y="144" /><rect fill="#161b22" height="11" rx="2" width="11" x="745" y="159" /><rect fill="#0e4429" height="11" rx="2" width="11" x="745" y="174" /><rect fill="#006d32" height="11" rx="2" width="11" x="745" y="189" /><rect fill="#006d32" height="11" rx="2" width="11" x="760" y="99" /><rect fill="#161b22" height="11" rx="2" width="11" x="760" y="114" /><rect fill="#39d353" height="11" rx="2" width="11" x="760" y="129" /><rect fill="#161b22" height="11" rx="2" width="11" x="760" y="144" /><rect fill="#161b22" height="11" rx="2" width="11" x="760" y="159" /><rect fill="#0e4429" height="11" rx="2" width="11" x="760" y="174" /><rect fill="#0e4429" height="11" rx="2" width="11" x="760" y="189" /><rect fill="#39d353" height="11" rx="2" width="11" x="775" y="99" /><rect fill="#0e4429" height="11" rx="2" width="11" x="775" y="114" /><rect fill="#161b22" height="11" rx="2" width="11" x="775" y="129" /><rect fill="#161b22" height="11" rx="2" width="11" x="775" y="144" /><rect fill="#0e4429" height="11" rx="2" width="11" x="775" y="159" /><rect fill="#0e4429" height="11" rx="2" width="11" x="775" y="174" /><rect fill="#39d353" height="11" rx="2" width="11" x="775" y="189" /><rect fill="#161b22" height="11" rx="2" width="11" x="790" y="99" /><rect fill="#0e4429" height="11" rx="2" width="11" x="790" y="114" /><rect fill="#161b22" height="11" rx="2" width="11" x="790" y="129" /><rect fill="#161b22" height="11" rx="2" width="11" x="790" y="144" /><rect fill="#161b22" height="11" rx="2" width="11" x="790" y="159" /><rect fill="#161b22" height="11" rx="2" width="11" x="790" y="174" /><rect fill="#0e4429" height="11" rx="2" width="11" x="790" y="189" /><rect fill="#0e4429" height="11" rx="2" width="11" x="805" y="99" /><rect fill="#161b22" height="11" rx="2" width="11" x="805" y="114" /><rect fill="#006d32" height="11" rx="2" width="11" x="805" y="129" /><rect fill="#006d32" height="11" rx="2" width="11" x="805" y="144" /><rect fill="#0e4429" height="11" rx="2" width="11" x="805" y="159" /><rect fill="#161b22" height="11" rx="2" width="11" x="805" y="174" /><rect fill="#0e4429" height="11" rx="2" width="11" x="805" y="189" /><rect fill="#39d353" height="11" rx="2" width="11" x="820" y="99" /><rect fill="#161b22" height="11" rx="2" width="11" x="820" y="114" /><rect fill="#006d32" height="11" rx="2" width="11" x="820" y="129" /><rect fill="#39d353" height="11" rx="2" width="11" x="820" y="144" /><rect fill="#39d353" height="11" rx="2" width="11" x="820" y="159" /><rect fill="#006d32" height="11" rx="2" width="11" x="820" y="174" /><rect fill="#39d353" height="11" rx="2" width="11" x="820" y="189" /><rect fill="#006d32" height="11" rx="2" width="11" x="835" y="99" /><rect fill="#39d353" height="11" rx="2" width="11" x="835" y="114" /><rect fill="#161b22" height="11" rx="2" width="11" x="835" y="129" /><rect fill="#161b22" height="11" rx="2" width="11" x="835" y="144" /><rect fill="#39d353" height="11" rx="2" width="11" x="835" y="159" /><rect fill="#0e4429" height="11" rx="2" width="11" x="835" y="174" /><rect fill="#39d353" height="11" rx="2" width="11" x="835" y="189" /><rect fill="#0e4429" height="11" rx="2" width="11" x="850" y="99" /><rect fill="#006d32" height="11" rx="2" width="11" x="850" y="114" /><rect fill="#006d32" height="11" rx="2" width="11" x="850" y="129" /><rect fill="#006d32" height="11" rx="2" width="11" x="850" y="144" /><rect fill="#161b22" height="11" rx="2" width="11" x="850" y="159" /><rect fill="#39d353" height="11" rx="2" width="11" x="850" y="174" /><rect fill="#161b22" height="11" rx="2" width="11" x="850" y="189" /><rect fill="#39d353" height="11" rx="2" width="11" x="865" y="99" /><rect fill="#006d32" height="11" rx="2" width="11" x="865" y="114" /><rect fill="#0e4429" height="11" rx="2" width="11" x="865" y="129" /><rect fill="#0e4429" height="11" rx="2" width="11" x="865" y="144" /><rect fill="#0e4429" height="11" rx="2" width="11" x="865" y="159" /><rect fill="#0e4429" height="11" rx="2" width="11" x="865" y="174" /><rect fill="#39d353" height="11" rx="2" width="11" x="865" y="189" /><rect fill="#0e4429" height="11" rx="2" width="11" x="880" y="99" /><rect fill="#39d353" height="11" rx="2" width="11" x="880" y="114" /><rect fill="#006d32" height="11" rx="2" width="11" x="880" y="129" /><rect fill="#161b22" height="11" rx="2" width="11" x="880" y="144" /><rect fill="#161b22" height="11" rx="2" width="11" x="880" y="159" /><rect fill="#39d353" height="11" rx="2" width="11" x="880" y="174" /><rect fill="#006d32" height="11" rx="2" width="11" x="880" y="189" /><text fill="#8b949e" font-family="-apple-system, BlinkMacSystemFont, 'Segoe UI', sans-serif" font-size="10" font-weight="400" text-anchor="start" x="792" y="231">Less</text><rect fill="#161b22" height="11" rx="2" width="11" x="824" y="221" /><rect fill="#0e4429" height="11" rx="2" width="11" x="840" y="221" /><rect fill="#006d32" height="11" rx="2" width="11" x="856" y="221" /><rect fill="#26a641" height="11" rx="2" width="11" x="872" y="221" /><rect fill="#39d353" height="11" rx="2" width="11" x="888" y="221" /><text fill="#8b949e" font-family="-apple-system, BlinkMacSystemFont, 'Segoe UI', sans-serif" font-size="10" font-weight="400" text-anchor="start" x="913" y="231">More</text></svg>