<?xml version="1.0" encoding="utf-8" ?>
<svg baseProfile="full" height="253" version="1.1" viewBox="0 0 980 253" width="980" xmlns="http://www.w3.org/2000/svg" xmlns:ev="http://www.w3.org/2001/xml-events" xmlns:xlink="http://www.w3.org/1999/xlink"><title>Recent contribution activity</title><desc>Generated profile component: Recent contribution activity</desc><defs><style type="text/css"><![CDATA[
          .fade { animation: fade .7s ease-out both; }
          .float { animation: float 3.8s ease-in-out infinite; }
          .blink { animation: blink 1.1s step-end infinite; }
          .pulse { animation: pulse 2.8s ease-in-out infinite; }
          .reveal { animation: reveal .8s ease-out both; }
          .typing { animation: typing 1.15s steps(8, end) both; }
          @keyframes fade { from { opacity: 0; transform: translateY(5px); } to { opacity: 1; transform: translateY(0); } }
          @keyframes float { 0%,100% { transform:translateY(0); } 50% { transform:translateY(-3px); } }
          @keyframes blink { 50% { opacity:0; } }
          @keyframes pulse { 50% { opacity:.45; } }
          @keyframes reveal { from { opacity:0; transform:scale(.985); } to { opacity:1; transform:scale(1); } }
          @keyframes typing { from { opacity:0; letter-spacing:7px; } to { opacity:1; letter-spacing:0; } }
        ]]></style></defs><rect fill="#0d1117" height="253" rx="18" width="980" x="0" y="0" /><text fill="#58a6ff" font-family="SFMono-Regular, Consolas, 'Liberation Mono', monospace" font-size="13" font-weight="700" text-anchor="start" x="32" y="43">RECENT ACTIVITY</text><text fill="#8b949e" font-family="-apple-system, BlinkMacSystemFont, 'Segoe UI', sans-serif" font-size="13" font-weight="400" text-anchor="start" x="32" y="68">Last 28 days, shown as a contribution cadence.</text><rect fill="#161b22" height="122" rx="12" stroke="#30363d" stroke-width="1" width="918" x="31" y="91" /><rect class="reveal" fill="#21262d" height="12.0" rx="7" style="animation-delay:0.00s" width="15" x="60" y="176.0" /><text fill="#8b949e" font-family="SFMono-Regular, Consolas, 'Liberation Mono', monospace" font-size="9" font-weight="400" text-anchor="middle" x="67" y="204">22 Jun</text><rect class="reveal" fill="#21262d" height="12.0" rx="7" style="animation-delay:0.04s" width="15" x="91" y="176.0" /><rect class="reveal" fill="#21262d" height="12.0" rx="7" style="animation-delay:0.07s" width="15" x="122" y="176.0" /><rect class="reveal" fill="#21262d" height="12.0" rx="7" style="animation-delay:0.11s" width="15" x="153" y="176.0" /><rect class="reveal" fill="#21262d" height="12.0" rx="7" style="animation-delay:0.14s" width="15" x="184" y="176.0" /><rect class="reveal" fill="#21262d" height="12.0" rx="7" style="animation-delay:0.18s" width="15" x="215" y="176.0" /><rect class="reveal" fill="#21262d" height="12.0" rx="7" style="animation-delay:0.21s" width="15" x="246" y="176.0" /><rect class="reveal" fill="#21262d" height="12.0" rx="7" style="animation-delay:0.25s" width="15" x="277" y="176.0" /><text fill="#8b949e" font-family="SFMono-Regular, Consolas, 'Liberation Mono', monospace" font-size="9" font-weight="400" text-anchor="middle" x="284" y="204">29 Jun</text><rect class="reveal" fill="#21262d" height="12.0" rx="7" style="animation-delay:0.28s" width="15" x="308" y="176.0" /><rect class="reveal" fill="#21262d" height="12.0" rx="7" style="animation-delay:0.32s" width="15" x="339" y="176.0" /><rect class="reveal" fill="#21262d" height="12.0" rx="7" style="animation-delay:0.35s" width="15" x="370" y="176.0" /><rect class="reveal" fill="#21262d" height="12.0" rx="7" style="animation-delay:0.39s" width="15" x="401" y="176.0" /><rect class="reveal" fill="#21262d" height="12.0" rx="7" style="animation-delay:0.42s" width="15" x="432" y="176.0" /><rect class="reveal" fill="#21262d" height="12.0" rx="7" style="animation-delay:0.46s" width="15" x="463" y="176.0" /><rect class="reveal" fill="#21262d" height="12.0" rx="7" style="animation-delay:0.49s" width="15" x="494" y="176.0" /><text fill="#8b949e" font-family="SFMono-Regular, Consolas, 'Liberation Mono', monospace" font-size="9" font-weight="400" text-anchor="middle" x="501" y="204">06 Jul</text><rect class="reveal" fill="#21262d" height="12.0" rx="7" style="animation-delay:0.53s" width="15" x="525" y="176.0" /><rect class="reveal" fill="#21262d" height="12.0" rx="7" style="animation-delay:0.56s" width="15" x="556" y="176.0" /><rect class="reveal" fill="#21262d" height="12.0" rx="7" style="animation-delay:0.60s" width="15" x="587" y="176.0" /><rect class="reveal" fill="#21262d" height="12.0" rx="7" style="animation-delay:0.63s" width="15" x="618" y="176.0" /><rect class="reveal" fill="#21262d" height="12.0" rx="7" style="animation-delay:0.67s" width="15" x="649" y="176.0" /><rect class="reveal" fill="#21262d" height="12.0" rx="7" style="animation-delay:0.70s" width="15" x="680" y="176.0" /><rect class="reveal" fill="#21262d" height="12.0" rx="7" style="animation-delay:0.74s" width="15" x="711" y="176.0" /><text fill="#8b949e" font-family="SFMono-Regular, Consolas, 'Liberation Mono', monospace" font-size="9" font-weight="400" text-anchor="middle" x="718" y="204">13 Jul</text><rect class="reveal" fill="#21262d" height="12.0" rx="7" style="animation-delay:0.77s" width="15" x="742" y="176.0" /><rect class="reveal" fill="#21262d" height="12.0" rx="7" style="animation-delay:0.81s" width="15" x="773" y="176.0" /><rect class="reveal" fill="#21262d" height="12.0" rx="7" style="animation-delay:0.84s" width="15" x="804" y="176.0" /><rect class="reveal" fill="#21262d" height="12.0" rx="7" style="animation-delay:0.88s" width="15" x="835" y="176.0" /><rect class="reveal" fill="#21262d" height="12.0" rx="7" style="animation-delay:0.91s" width="15" x="866" y="176.0" /><rect class="reveal" fill="#3fb950" height="71.0" rx="7" style="animation-delay:0.95s" width="15" x="897" y="117.0" /><text fill="#8b949e" font-family="SFMono-Regular, Consolas, 'Liberation Mono', monospace" font-size="11" font-weight="400" text-anchor="end" x="931" y="231">6 contributions in this window</text></svg>